<mxfile host="app.diagrams.net" modified="2020-06-03T15:15:28.613Z" agent="5.0 (Windows NT 10.0; Win64; x64) AppleWebKit/537.36 (KHTML, like Gecko) Chrome/83.0.4103.61 Safari/537.36" etag="g7l3IS-hjK5zQxR05Mxs" version="13.1.3" type="github">
  <diagram id="ZH3xo2nN75ZQSzlnuW62" name="SimplyBookMe">
    <mxGraphModel dx="2060" dy="1885" grid="1" gridSize="10" guides="1" tooltips="1" connect="1" arrows="1" fold="1" page="1" pageScale="1" pageWidth="827" pageHeight="1169" math="0" shadow="0">
      <root>
        <mxCell id="Yqkx4-nVCXs1Iv1xn4TD-0" />
        <mxCell id="Yqkx4-nVCXs1Iv1xn4TD-1" parent="Yqkx4-nVCXs1Iv1xn4TD-0" />
        <mxCell id="BlqB3QtgrvFku6tzY3WW-1" value="&lt;span style=&quot;font-size: 30px&quot;&gt;&lt;b&gt;Outlook&lt;/b&gt;&lt;/span&gt;" style="rounded=1;whiteSpace=wrap;html=1;verticalAlign=top;strokeWidth=3;strokeColor=#020912;dashed=1;" vertex="1" parent="Yqkx4-nVCXs1Iv1xn4TD-1">
          <mxGeometry x="-120" y="70" width="820" height="830" as="geometry" />
        </mxCell>
        <mxCell id="BlqB3QtgrvFku6tzY3WW-0" value="&lt;span style=&quot;font-size: 30px&quot;&gt;&lt;b&gt;Digital Tools&lt;/b&gt;&lt;/span&gt;" style="rounded=1;whiteSpace=wrap;html=1;verticalAlign=top;strokeWidth=3;strokeColor=#020912;dashed=1;" vertex="1" parent="Yqkx4-nVCXs1Iv1xn4TD-1">
          <mxGeometry x="-820" y="-250" width="670" height="640" as="geometry" />
        </mxCell>
        <mxCell id="csKMzoJPICtVKWmHtALR-6" value="" style="shape=actor;whiteSpace=wrap;html=1;strokeWidth=4;" parent="Yqkx4-nVCXs1Iv1xn4TD-1" vertex="1">
          <mxGeometry x="140" y="460" width="40" height="60" as="geometry" />
        </mxCell>
        <mxCell id="csKMzoJPICtVKWmHtALR-11" value="&lt;span style=&quot;font-size: 30px&quot;&gt;&lt;b&gt;Simply Book Me&lt;/b&gt;&lt;/span&gt;" style="rounded=1;whiteSpace=wrap;html=1;verticalAlign=top;strokeWidth=3;strokeColor=#020912;" parent="Yqkx4-nVCXs1Iv1xn4TD-1" vertex="1">
          <mxGeometry x="-740" y="140" width="520" height="230" as="geometry" />
        </mxCell>
        <mxCell id="csKMzoJPICtVKWmHtALR-13" value="&lt;span style=&quot;font-size: 30px&quot;&gt;&lt;b&gt;Mon&lt;/b&gt;&lt;/span&gt;" style="rounded=1;whiteSpace=wrap;html=1;verticalAlign=top;strokeWidth=3;strokeColor=#020912;" parent="Yqkx4-nVCXs1Iv1xn4TD-1" vertex="1">
          <mxGeometry x="-730" y="200" width="90" height="150" as="geometry" />
        </mxCell>
        <mxCell id="csKMzoJPICtVKWmHtALR-14" value="&lt;span style=&quot;font-size: 30px&quot;&gt;&lt;b&gt;Tues&lt;/b&gt;&lt;/span&gt;" style="rounded=1;whiteSpace=wrap;html=1;verticalAlign=top;strokeWidth=3;strokeColor=#020912;" parent="Yqkx4-nVCXs1Iv1xn4TD-1" vertex="1">
          <mxGeometry x="-627" y="200" width="90" height="150" as="geometry" />
        </mxCell>
        <mxCell id="csKMzoJPICtVKWmHtALR-15" value="&lt;span style=&quot;font-size: 30px&quot;&gt;&lt;b&gt;Weds&lt;/b&gt;&lt;/span&gt;" style="rounded=1;whiteSpace=wrap;html=1;verticalAlign=top;strokeWidth=3;strokeColor=#020912;" parent="Yqkx4-nVCXs1Iv1xn4TD-1" vertex="1">
          <mxGeometry x="-525" y="200" width="90" height="150" as="geometry" />
        </mxCell>
        <mxCell id="csKMzoJPICtVKWmHtALR-16" value="&lt;span style=&quot;font-size: 30px&quot;&gt;&lt;b&gt;Thurs&lt;/b&gt;&lt;/span&gt;" style="rounded=1;whiteSpace=wrap;html=1;verticalAlign=top;strokeWidth=3;strokeColor=#020912;" parent="Yqkx4-nVCXs1Iv1xn4TD-1" vertex="1">
          <mxGeometry x="-421" y="200" width="90" height="150" as="geometry" />
        </mxCell>
        <mxCell id="csKMzoJPICtVKWmHtALR-17" value="&lt;span style=&quot;font-size: 30px&quot;&gt;&lt;b&gt;Fri&lt;/b&gt;&lt;/span&gt;" style="rounded=1;whiteSpace=wrap;html=1;verticalAlign=top;strokeWidth=3;strokeColor=#020912;" parent="Yqkx4-nVCXs1Iv1xn4TD-1" vertex="1">
          <mxGeometry x="-320" y="200" width="90" height="150" as="geometry" />
        </mxCell>
        <mxCell id="csKMzoJPICtVKWmHtALR-18" value="&lt;span style=&quot;font-size: 30px&quot;&gt;&lt;b&gt;BADA&lt;/b&gt;&lt;/span&gt;" style="rounded=1;whiteSpace=wrap;html=1;verticalAlign=top;strokeWidth=3;strokeColor=#020912;" parent="Yqkx4-nVCXs1Iv1xn4TD-1" vertex="1">
          <mxGeometry x="-737" y="-180" width="520" height="230" as="geometry" />
        </mxCell>
        <mxCell id="csKMzoJPICtVKWmHtALR-19" value="&lt;span style=&quot;font-size: 30px&quot;&gt;&lt;b&gt;Get Slot&lt;/b&gt;&lt;/span&gt;" style="rounded=1;whiteSpace=wrap;html=1;verticalAlign=top;strokeWidth=3;strokeColor=#020912;" parent="Yqkx4-nVCXs1Iv1xn4TD-1" vertex="1">
          <mxGeometry x="-540" y="-20" width="140" height="60" as="geometry" />
        </mxCell>
        <mxCell id="csKMzoJPICtVKWmHtALR-20" value="" style="shape=flexArrow;endArrow=classic;html=1;entryX=0;entryY=0.5;entryDx=0;entryDy=0;exitX=1;exitY=0.5;exitDx=0;exitDy=0;" parent="Yqkx4-nVCXs1Iv1xn4TD-1" source="csKMzoJPICtVKWmHtALR-11" target="csKMzoJPICtVKWmHtALR-0" edge="1">
          <mxGeometry width="50" height="50" relative="1" as="geometry">
            <mxPoint x="-290" y="470" as="sourcePoint" />
            <mxPoint x="-240" y="420" as="targetPoint" />
          </mxGeometry>
        </mxCell>
        <mxCell id="csKMzoJPICtVKWmHtALR-24" value="" style="shape=actor;whiteSpace=wrap;html=1;strokeWidth=4;" parent="Yqkx4-nVCXs1Iv1xn4TD-1" vertex="1">
          <mxGeometry x="280" y="460" width="40" height="60" as="geometry" />
        </mxCell>
        <mxCell id="csKMzoJPICtVKWmHtALR-25" value="" style="shape=actor;whiteSpace=wrap;html=1;strokeWidth=4;" parent="Yqkx4-nVCXs1Iv1xn4TD-1" vertex="1">
          <mxGeometry x="440" y="460" width="40" height="60" as="geometry" />
        </mxCell>
        <mxCell id="csKMzoJPICtVKWmHtALR-26" value="" style="group" parent="Yqkx4-nVCXs1Iv1xn4TD-1" vertex="1" connectable="0">
          <mxGeometry x="30" y="140" width="520" height="230" as="geometry" />
        </mxCell>
        <mxCell id="csKMzoJPICtVKWmHtALR-0" value="&lt;span style=&quot;font-size: 30px&quot;&gt;&lt;b&gt;Magnet.Branch&lt;/b&gt;&lt;/span&gt;" style="rounded=1;whiteSpace=wrap;html=1;verticalAlign=top;strokeWidth=3;strokeColor=#020912;" parent="csKMzoJPICtVKWmHtALR-26" vertex="1">
          <mxGeometry width="520" height="230" as="geometry" />
        </mxCell>
        <mxCell id="csKMzoJPICtVKWmHtALR-1" value="&lt;span style=&quot;font-size: 30px&quot;&gt;&lt;b&gt;Mon&lt;/b&gt;&lt;/span&gt;" style="rounded=1;whiteSpace=wrap;html=1;verticalAlign=top;strokeWidth=3;strokeColor=#020912;" parent="csKMzoJPICtVKWmHtALR-26" vertex="1">
          <mxGeometry x="10" y="60" width="90" height="150" as="geometry" />
        </mxCell>
        <mxCell id="csKMzoJPICtVKWmHtALR-2" value="&lt;span style=&quot;font-size: 30px&quot;&gt;&lt;b&gt;Tues&lt;/b&gt;&lt;/span&gt;" style="rounded=1;whiteSpace=wrap;html=1;verticalAlign=top;strokeWidth=3;strokeColor=#020912;" parent="csKMzoJPICtVKWmHtALR-26" vertex="1">
          <mxGeometry x="110" y="60" width="90" height="150" as="geometry" />
        </mxCell>
        <mxCell id="csKMzoJPICtVKWmHtALR-3" value="&lt;span style=&quot;font-size: 30px&quot;&gt;&lt;b&gt;Weds&lt;/b&gt;&lt;/span&gt;" style="rounded=1;whiteSpace=wrap;html=1;verticalAlign=top;strokeWidth=3;strokeColor=#020912;" parent="csKMzoJPICtVKWmHtALR-26" vertex="1">
          <mxGeometry x="210" y="60" width="90" height="150" as="geometry" />
        </mxCell>
        <mxCell id="csKMzoJPICtVKWmHtALR-4" value="&lt;span style=&quot;font-size: 30px&quot;&gt;&lt;b&gt;Thurs&lt;/b&gt;&lt;/span&gt;" style="rounded=1;whiteSpace=wrap;html=1;verticalAlign=top;strokeWidth=3;strokeColor=#020912;" parent="csKMzoJPICtVKWmHtALR-26" vertex="1">
          <mxGeometry x="310" y="60" width="90" height="150" as="geometry" />
        </mxCell>
        <mxCell id="csKMzoJPICtVKWmHtALR-5" value="&lt;span style=&quot;font-size: 30px&quot;&gt;&lt;b&gt;Fri&lt;/b&gt;&lt;/span&gt;" style="rounded=1;whiteSpace=wrap;html=1;verticalAlign=top;strokeWidth=3;strokeColor=#020912;" parent="csKMzoJPICtVKWmHtALR-26" vertex="1">
          <mxGeometry x="410" y="60" width="90" height="150" as="geometry" />
        </mxCell>
        <mxCell id="csKMzoJPICtVKWmHtALR-29" value="" style="group" parent="Yqkx4-nVCXs1Iv1xn4TD-1" vertex="1" connectable="0">
          <mxGeometry x="-90" y="640" width="220" height="200" as="geometry" />
        </mxCell>
        <mxCell id="csKMzoJPICtVKWmHtALR-30" value="&lt;span style=&quot;font-size: 30px&quot;&gt;&lt;b&gt;Person.A&lt;/b&gt;&lt;/span&gt;" style="rounded=1;whiteSpace=wrap;html=1;verticalAlign=top;strokeWidth=3;strokeColor=#020912;" parent="csKMzoJPICtVKWmHtALR-29" vertex="1">
          <mxGeometry width="220" height="200" as="geometry" />
        </mxCell>
        <mxCell id="csKMzoJPICtVKWmHtALR-31" value="&lt;span style=&quot;font-size: 11px;&quot;&gt;&lt;b style=&quot;font-size: 11px;&quot;&gt;Mon&lt;/b&gt;&lt;/span&gt;" style="rounded=1;whiteSpace=wrap;html=1;verticalAlign=top;strokeWidth=3;strokeColor=#020912;fontSize=11;" parent="csKMzoJPICtVKWmHtALR-29" vertex="1">
          <mxGeometry x="4.230769230769231" y="52.17391304347826" width="38.07692307692307" height="130.43478260869566" as="geometry" />
        </mxCell>
        <mxCell id="csKMzoJPICtVKWmHtALR-32" value="&lt;span style=&quot;font-size: 11px;&quot;&gt;&lt;b style=&quot;font-size: 11px;&quot;&gt;Tues&lt;/b&gt;&lt;/span&gt;" style="rounded=1;whiteSpace=wrap;html=1;verticalAlign=top;strokeWidth=3;strokeColor=#020912;fontSize=11;" parent="csKMzoJPICtVKWmHtALR-29" vertex="1">
          <mxGeometry x="46.53846153846154" y="52.17391304347826" width="38.07692307692307" height="130.43478260869566" as="geometry" />
        </mxCell>
        <mxCell id="csKMzoJPICtVKWmHtALR-33" value="&lt;span style=&quot;font-size: 11px;&quot;&gt;&lt;b style=&quot;font-size: 11px;&quot;&gt;Weds&lt;/b&gt;&lt;/span&gt;" style="rounded=1;whiteSpace=wrap;html=1;verticalAlign=top;strokeWidth=3;strokeColor=#020912;fontSize=11;" parent="csKMzoJPICtVKWmHtALR-29" vertex="1">
          <mxGeometry x="88.84615384615384" y="52.17391304347826" width="38.07692307692307" height="130.43478260869566" as="geometry" />
        </mxCell>
        <mxCell id="csKMzoJPICtVKWmHtALR-34" value="&lt;span style=&quot;font-size: 11px;&quot;&gt;&lt;b style=&quot;font-size: 11px;&quot;&gt;Thurs&lt;/b&gt;&lt;/span&gt;" style="rounded=1;whiteSpace=wrap;html=1;verticalAlign=top;strokeWidth=3;strokeColor=#020912;fontSize=11;" parent="csKMzoJPICtVKWmHtALR-29" vertex="1">
          <mxGeometry x="131.15384615384616" y="52.17391304347826" width="38.07692307692307" height="130.43478260869566" as="geometry" />
        </mxCell>
        <mxCell id="csKMzoJPICtVKWmHtALR-35" value="&lt;span style=&quot;font-size: 11px;&quot;&gt;&lt;b style=&quot;font-size: 11px;&quot;&gt;Fri&lt;/b&gt;&lt;/span&gt;" style="rounded=1;whiteSpace=wrap;html=1;verticalAlign=top;strokeWidth=3;strokeColor=#020912;fontSize=11;" parent="csKMzoJPICtVKWmHtALR-29" vertex="1">
          <mxGeometry x="173.46153846153845" y="52.17391304347826" width="38.07692307692307" height="130.43478260869566" as="geometry" />
        </mxCell>
        <mxCell id="csKMzoJPICtVKWmHtALR-45" value="" style="group" parent="Yqkx4-nVCXs1Iv1xn4TD-1" vertex="1" connectable="0">
          <mxGeometry x="190" y="640" width="220" height="200" as="geometry" />
        </mxCell>
        <mxCell id="csKMzoJPICtVKWmHtALR-46" value="&lt;span style=&quot;font-size: 30px&quot;&gt;&lt;b&gt;Person.B&lt;/b&gt;&lt;/span&gt;" style="rounded=1;whiteSpace=wrap;html=1;verticalAlign=top;strokeWidth=3;strokeColor=#020912;" parent="csKMzoJPICtVKWmHtALR-45" vertex="1">
          <mxGeometry width="220" height="200" as="geometry" />
        </mxCell>
        <mxCell id="csKMzoJPICtVKWmHtALR-47" value="&lt;span style=&quot;font-size: 11px;&quot;&gt;&lt;b style=&quot;font-size: 11px;&quot;&gt;Mon&lt;/b&gt;&lt;/span&gt;" style="rounded=1;whiteSpace=wrap;html=1;verticalAlign=top;strokeWidth=3;strokeColor=#020912;fontSize=11;" parent="csKMzoJPICtVKWmHtALR-45" vertex="1">
          <mxGeometry x="4.230769230769231" y="52.17391304347826" width="38.07692307692307" height="130.43478260869566" as="geometry" />
        </mxCell>
        <mxCell id="csKMzoJPICtVKWmHtALR-48" value="&lt;span style=&quot;font-size: 11px;&quot;&gt;&lt;b style=&quot;font-size: 11px;&quot;&gt;Tues&lt;/b&gt;&lt;/span&gt;" style="rounded=1;whiteSpace=wrap;html=1;verticalAlign=top;strokeWidth=3;strokeColor=#020912;fontSize=11;" parent="csKMzoJPICtVKWmHtALR-45" vertex="1">
          <mxGeometry x="46.53846153846154" y="52.17391304347826" width="38.07692307692307" height="130.43478260869566" as="geometry" />
        </mxCell>
        <mxCell id="csKMzoJPICtVKWmHtALR-49" value="&lt;span style=&quot;font-size: 11px;&quot;&gt;&lt;b style=&quot;font-size: 11px;&quot;&gt;Weds&lt;/b&gt;&lt;/span&gt;" style="rounded=1;whiteSpace=wrap;html=1;verticalAlign=top;strokeWidth=3;strokeColor=#020912;fontSize=11;" parent="csKMzoJPICtVKWmHtALR-45" vertex="1">
          <mxGeometry x="88.84615384615384" y="52.17391304347826" width="38.07692307692307" height="130.43478260869566" as="geometry" />
        </mxCell>
        <mxCell id="csKMzoJPICtVKWmHtALR-50" value="&lt;span style=&quot;font-size: 11px;&quot;&gt;&lt;b style=&quot;font-size: 11px;&quot;&gt;Thurs&lt;/b&gt;&lt;/span&gt;" style="rounded=1;whiteSpace=wrap;html=1;verticalAlign=top;strokeWidth=3;strokeColor=#020912;fontSize=11;" parent="csKMzoJPICtVKWmHtALR-45" vertex="1">
          <mxGeometry x="131.15384615384616" y="52.17391304347826" width="38.07692307692307" height="130.43478260869566" as="geometry" />
        </mxCell>
        <mxCell id="csKMzoJPICtVKWmHtALR-51" value="&lt;span style=&quot;font-size: 11px;&quot;&gt;&lt;b style=&quot;font-size: 11px;&quot;&gt;Fri&lt;/b&gt;&lt;/span&gt;" style="rounded=1;whiteSpace=wrap;html=1;verticalAlign=top;strokeWidth=3;strokeColor=#020912;fontSize=11;" parent="csKMzoJPICtVKWmHtALR-45" vertex="1">
          <mxGeometry x="173.46153846153845" y="52.17391304347826" width="38.07692307692307" height="130.43478260869566" as="geometry" />
        </mxCell>
        <mxCell id="csKMzoJPICtVKWmHtALR-52" value="" style="group" parent="Yqkx4-nVCXs1Iv1xn4TD-1" vertex="1" connectable="0">
          <mxGeometry x="460" y="640" width="220" height="200" as="geometry" />
        </mxCell>
        <mxCell id="csKMzoJPICtVKWmHtALR-53" value="&lt;span style=&quot;font-size: 30px&quot;&gt;&lt;b&gt;Person.C&lt;/b&gt;&lt;/span&gt;" style="rounded=1;whiteSpace=wrap;html=1;verticalAlign=top;strokeWidth=3;strokeColor=#020912;" parent="csKMzoJPICtVKWmHtALR-52" vertex="1">
          <mxGeometry width="220" height="200" as="geometry" />
        </mxCell>
        <mxCell id="csKMzoJPICtVKWmHtALR-54" value="&lt;span style=&quot;font-size: 11px;&quot;&gt;&lt;b style=&quot;font-size: 11px;&quot;&gt;Mon&lt;/b&gt;&lt;/span&gt;" style="rounded=1;whiteSpace=wrap;html=1;verticalAlign=top;strokeWidth=3;strokeColor=#020912;fontSize=11;" parent="csKMzoJPICtVKWmHtALR-52" vertex="1">
          <mxGeometry x="4.230769230769231" y="52.17391304347826" width="38.07692307692307" height="130.43478260869566" as="geometry" />
        </mxCell>
        <mxCell id="csKMzoJPICtVKWmHtALR-55" value="&lt;span style=&quot;font-size: 11px;&quot;&gt;&lt;b style=&quot;font-size: 11px;&quot;&gt;Tues&lt;/b&gt;&lt;/span&gt;" style="rounded=1;whiteSpace=wrap;html=1;verticalAlign=top;strokeWidth=3;strokeColor=#020912;fontSize=11;" parent="csKMzoJPICtVKWmHtALR-52" vertex="1">
          <mxGeometry x="46.53846153846154" y="52.17391304347826" width="38.07692307692307" height="130.43478260869566" as="geometry" />
        </mxCell>
        <mxCell id="csKMzoJPICtVKWmHtALR-56" value="&lt;span style=&quot;font-size: 11px;&quot;&gt;&lt;b style=&quot;font-size: 11px;&quot;&gt;Weds&lt;/b&gt;&lt;/span&gt;" style="rounded=1;whiteSpace=wrap;html=1;verticalAlign=top;strokeWidth=3;strokeColor=#020912;fontSize=11;" parent="csKMzoJPICtVKWmHtALR-52" vertex="1">
          <mxGeometry x="88.84615384615384" y="52.17391304347826" width="38.07692307692307" height="130.43478260869566" as="geometry" />
        </mxCell>
        <mxCell id="csKMzoJPICtVKWmHtALR-57" value="&lt;span style=&quot;font-size: 11px;&quot;&gt;&lt;b style=&quot;font-size: 11px;&quot;&gt;Thurs&lt;/b&gt;&lt;/span&gt;" style="rounded=1;whiteSpace=wrap;html=1;verticalAlign=top;strokeWidth=3;strokeColor=#020912;fontSize=11;" parent="csKMzoJPICtVKWmHtALR-52" vertex="1">
          <mxGeometry x="131.15384615384616" y="52.17391304347826" width="38.07692307692307" height="130.43478260869566" as="geometry" />
        </mxCell>
        <mxCell id="csKMzoJPICtVKWmHtALR-58" value="&lt;span style=&quot;font-size: 11px;&quot;&gt;&lt;b style=&quot;font-size: 11px;&quot;&gt;Fri&lt;/b&gt;&lt;/span&gt;" style="rounded=1;whiteSpace=wrap;html=1;verticalAlign=top;strokeWidth=3;strokeColor=#020912;fontSize=11;" parent="csKMzoJPICtVKWmHtALR-52" vertex="1">
          <mxGeometry x="173.46153846153845" y="52.17391304347826" width="38.07692307692307" height="130.43478260869566" as="geometry" />
        </mxCell>
        <mxCell id="csKMzoJPICtVKWmHtALR-60" value="" style="shape=flexArrow;endArrow=classic;html=1;entryX=0.25;entryY=1;entryDx=0;entryDy=0;" parent="Yqkx4-nVCXs1Iv1xn4TD-1" target="csKMzoJPICtVKWmHtALR-0" edge="1">
          <mxGeometry width="50" height="50" relative="1" as="geometry">
            <mxPoint x="160" y="440" as="sourcePoint" />
            <mxPoint x="210" y="440" as="targetPoint" />
          </mxGeometry>
        </mxCell>
        <mxCell id="csKMzoJPICtVKWmHtALR-61" value="" style="shape=flexArrow;endArrow=classic;html=1;entryX=0.5;entryY=0;entryDx=0;entryDy=0;" parent="Yqkx4-nVCXs1Iv1xn4TD-1" target="csKMzoJPICtVKWmHtALR-30" edge="1">
          <mxGeometry width="50" height="50" relative="1" as="geometry">
            <mxPoint x="130" y="530" as="sourcePoint" />
            <mxPoint x="170" y="380" as="targetPoint" />
          </mxGeometry>
        </mxCell>
        <mxCell id="csKMzoJPICtVKWmHtALR-62" value="" style="shape=flexArrow;endArrow=classic;html=1;entryX=0.25;entryY=1;entryDx=0;entryDy=0;" parent="Yqkx4-nVCXs1Iv1xn4TD-1" edge="1">
          <mxGeometry width="50" height="50" relative="1" as="geometry">
            <mxPoint x="299.5" y="440" as="sourcePoint" />
            <mxPoint x="299.5" y="370" as="targetPoint" />
          </mxGeometry>
        </mxCell>
        <mxCell id="csKMzoJPICtVKWmHtALR-63" value="" style="shape=flexArrow;endArrow=classic;html=1;entryX=0.25;entryY=1;entryDx=0;entryDy=0;" parent="Yqkx4-nVCXs1Iv1xn4TD-1" edge="1">
          <mxGeometry width="50" height="50" relative="1" as="geometry">
            <mxPoint x="459" y="440" as="sourcePoint" />
            <mxPoint x="459" y="370" as="targetPoint" />
          </mxGeometry>
        </mxCell>
        <mxCell id="csKMzoJPICtVKWmHtALR-64" value="" style="shape=flexArrow;endArrow=classic;html=1;entryX=0.5;entryY=0;entryDx=0;entryDy=0;" parent="Yqkx4-nVCXs1Iv1xn4TD-1" target="csKMzoJPICtVKWmHtALR-46" edge="1">
          <mxGeometry width="50" height="50" relative="1" as="geometry">
            <mxPoint x="300" y="530" as="sourcePoint" />
            <mxPoint x="190" y="640" as="targetPoint" />
          </mxGeometry>
        </mxCell>
        <mxCell id="csKMzoJPICtVKWmHtALR-65" value="" style="shape=flexArrow;endArrow=classic;html=1;entryX=0.5;entryY=0;entryDx=0;entryDy=0;" parent="Yqkx4-nVCXs1Iv1xn4TD-1" target="csKMzoJPICtVKWmHtALR-53" edge="1">
          <mxGeometry width="50" height="50" relative="1" as="geometry">
            <mxPoint x="470" y="530" as="sourcePoint" />
            <mxPoint x="30" y="650" as="targetPoint" />
          </mxGeometry>
        </mxCell>
        <mxCell id="csKMzoJPICtVKWmHtALR-66" value="" style="shape=flexArrow;endArrow=classic;html=1;entryX=0.5;entryY=0;entryDx=0;entryDy=0;exitX=1;exitY=0.5;exitDx=0;exitDy=0;" parent="Yqkx4-nVCXs1Iv1xn4TD-1" target="csKMzoJPICtVKWmHtALR-11" edge="1">
          <mxGeometry width="50" height="50" relative="1" as="geometry">
            <mxPoint x="-481" y="50" as="sourcePoint" />
            <mxPoint x="-331" y="50" as="targetPoint" />
          </mxGeometry>
        </mxCell>
      </root>
    </mxGraphModel>
  </diagram>
</mxfile>
